{
  "accessors": [
    {
      "bufferView": 1,
      "componentType": 5126,
      "count": 6,
      "max": [
        -0.0074029997922480106,
        -0.040585000067949295,
        0.29985600709915161
      ],
      "min": [
        -0.0079110004007816315,
        -0.041701000183820724,
        0.29858601093292236
      ],
      "type": "VEC3"
    },
    {
      "bufferView": 0,
      "componentType": 5125,
      "count": 8,
      "max": [
        5
      ],
      "min": [
        0
      ],
      "type": "SCALAR"
    },
    {
      "bufferView": 1,
      "byteOffset": 72,
      "componentType": 5126,
      "count": 65532,
      "max": [
        0.037422999739646912,
        0.025107000023126602,
        0.3117389976978302
      ],
      "min": [
        -0.080191999673843384,
        -0.047731000930070877,
        0.052168998867273331
      ],
      "type": "VEC3"
    },
    {
      "bufferView": 1,
      "byteOffset": 786456,
      "componentType": 5126,
      "count": 65532,
      "max": [
        0.99996507167816162,
        0.99998962879180908,
        0.99997067451477051
      ],
      "min": [
        -0.9999392032623291,
        -0.99998188018798828,
        -0.99969559907913208
      ],
      "type": "VEC3"
    },
    {
      "bufferView": 0,
      "byteOffset": 32,
      "componentType": 5125,
      "count": 382533,
      "max": [
        65531
      ],
      "min": [
        0
      ],
      "type": "SCALAR"
    },
    {
      "bufferView": 1,
      "byteOffset": 1572840,
      "componentType": 5126,
      "count": 34386,
      "max": [
        0.032830998301506042,
        0.057950999587774277,
        0.31047001481056213
      ],
      "min": [
        -0.082645997405052185,
        -0.063293002545833588,
        0.044390000402927399
      ],
      "type": "VEC3"
    },
    {
      "bufferView": 1,
      "byteOffset": 1985472,
      "componentType": 5126,
      "count": 34386,
      "max": [
        0.99993264675140381,
        0.99996805191040039,
        0.99997818470001221
      ],
      "min": [
        -1,
        -0.99988770484924316,
        -0.99998629093170166
      ],
      "type": "VEC3"
    },
    {
      "bufferView": 0,
      "byteOffset": 1530164,
      "componentType": 5125,
      "count": 185451,
      "max": [
        34385
      ],
      "min": [
        0
      ],
      "type": "SCALAR"
    }
  ],
  "asset": {
    "extras": {
      "author": "GassWagen (https://sketchfab.com/GassWagen)",
      "license": "CC-BY-4.0 (http://creativecommons.org/licenses/by/4.0/)",
      "source": "https://sketchfab.com/3d-models/elf-1965f92db665460a951438cbe2975cb0",
      "title": "Elf"
    },
    "generator": "Sketchfab-5.8.0",
    "version": "2.0"
  },
  "bufferViews": [
    {
      "buffer": 0,
      "byteLength": 2271968,
      "byteOffset": 0,
      "name": "floatBufferViews",
      "target": 34963
    },
    {
      "buffer": 0,
      "byteLength": 2398104,
      "byteOffset": 2271968,
      "byteStride": 12,
      "name": "floatBufferViews",
      "target": 34962
    }
  ],
  "buffers": [
    {
      "byteLength": 4670072,
      "uri": "scene.bin"
    }
  ],
  "materials": [
    {
      "doubleSided": true,
      "name": "material_0",
      "pbrMetallicRoughness": {
        "baseColorFactor": [
          1,
          1,
          1,
          1
        ],
        "metallicFactor": 0,
        "roughnessFactor": 0.59999999999999998
      }
    }
  ],
  "meshes": [
    {
      "primitives": [
        {
          "attributes": {
            "POSITION": 0
          },
          "indices": 1,
          "material": 0,
          "mode": 1
        }
      ]
    },
    {
      "primitives": [
        {
          "attributes": {
            "NORMAL": 3,
            "POSITION": 2
          },
          "indices": 4,
          "material": 0,
          "mode": 4
        }
      ]
    },
    {
      "primitives": [
        {
          "attributes": {
            "NORMAL": 6,
            "POSITION": 5
          },
          "indices": 7,
          "material": 0,
          "mode": 4
        }
      ]
    }
  ],
  "nodes": [
    {
      "children": [
        1
      ],
      "name": "RootNode (gltf orientation matrix)",
      "rotation": [
        -0.70710678118654746,
        -0,
        -0,
        0.70710678118654757
      ]
    },
    {
      "children": [
        2
      ],
      "name": "RootNode (model correction matrix)"
    },
    {
      "children": [
        3,
        4,
        5
      ],
      "name": "Elf Sulmeldis For Free.obj.cleaner.materialmerger.gles"
    },
    {
      "mesh": 0,
      "name": ""
    },
    {
      "mesh": 1,
      "name": ""
    },
    {
      "mesh": 2,
      "name": ""
    }
  ],
  "scene": 0,
  "scenes": [
    {
      "name": "OSG_Scene",
      "nodes": [
        0
      ]
    }
  ]
}
